<svg width="256" height="257" viewBox="0 0 256 257" fill="none" xmlns="http://www.w3.org/2000/svg">
<rect width="256" height="256" transform="translate(0 0.158691)" fill="#7033FF"/>
<path fill-rule="evenodd" clip-rule="evenodd" d="M150.317 55.7288C149.889 54.7537 148.92 54.1587 147.855 54.1587L144.822 54.1587C143.294 54.1587 142.032 55.3747 141.865 56.8937C141.206 62.9067 138.543 76.7454 127.987 76.7454C117.432 76.7454 114.768 62.9067 114.109 56.8937C113.943 55.3747 112.68 54.1587 111.152 54.1587L108.771 54.1587C107.862 54.1587 107.013 54.5927 106.548 55.3741C104.682 58.5094 100.134 67.4786 100.747 79.5687C101.375 91.9356 107.231 104.169 109.366 108.255C109.833 109.149 110.762 109.684 111.77 109.684L144.07 109.684C145.149 109.684 146.13 109.074 146.577 108.092C148.675 103.49 154.532 89.8436 155.227 79.5687C155.899 69.6495 151.985 59.5305 150.317 55.7288Z" fill="white"/>
<path d="M96.98 135.917C100.9 125.333 107.32 117.117 107.32 117.117L128 117.117L148.68 117.117C148.68 117.117 155.1 125.333 159.02 135.917C168.42 161.297 175 198.897 175 198.897C175 198.897 172.294 201.717 167.48 201.717C161.84 201.717 162.298 199.052 155.26 198.897C148.222 198.742 149.571 201.717 142.1 201.717C136.026 201.717 136.588 198.897 128 198.897C119.412 198.897 119.974 201.717 113.9 201.717C106.429 201.717 107.778 198.742 100.74 198.897C93.7017 199.052 94.16 201.717 88.52 201.717C83.706 201.717 81 198.897 81 198.897C81 198.897 87.58 161.297 96.98 135.917Z" fill="white"/>
</svg>
